<?xml version="1.0" encoding="utf-8"?>
<!-- Svg Vector Icons : http://www.onlinewebfonts.com/icon -->
<!DOCTYPE svg PUBLIC "-//W3C//DTD SVG 1.1//EN" "http://www.w3.org/Graphics/SVG/1.1/DTD/svg11.dtd">
<svg version="1.1" xmlns="http://www.w3.org/2000/svg" xmlns:xlink="http://www.w3.org/1999/xlink" x="0px" y="0px" viewBox="0 0 1000 1000" enable-background="new 0 0 1000 1000" xml:space="preserve">
<metadata> Svg Vector Icons : http://www.onlinewebfonts.com/icon </metadata>
<g><path d="M860.4,218.4l-74.3-77L914.9,10l74.3,77L860.4,218.4z M399.7,689.8l0.2,0.2l-112.1,38.7l37.4-116.1l0.2,0.2l423.5-432.8l74.3,77L399.7,689.8z M115.1,881.1l766,0V445.6L990,336.7v598.9c0,30.1-25.4,54.4-54.4,54.4l-873,0c-29,0-52.6-24.4-52.6-54.4V64.4C10,34.4,33.5,10,62.6,10l600.8,0L554.4,118.9l-439.3,0V881.1z"/></g>
</svg>