<?xml version="1.0" encoding="utf-8"?>
<!-- Svg Vector Icons : http://www.onlinewebfonts.com/icon -->
<!DOCTYPE svg PUBLIC "-//W3C//DTD SVG 1.1//EN" "http://www.w3.org/Graphics/SVG/1.1/DTD/svg11.dtd">
<svg version="1.1" xmlns="http://www.w3.org/2000/svg" xmlns:xlink="http://www.w3.org/1999/xlink" x="0px" y="0px" viewBox="0 0 1000 1000" enable-background="new 0 0 1000 1000" xml:space="preserve">
<metadata> Svg Vector Icons : http://www.onlinewebfonts.com/icon </metadata>
<g fill-opacity='0.3'><g transform="matrix(1 0 0 -1 0 1952)"><path d="M865.6,1357.5l-181.3,278.4l-121.6-154.8l-60.3,62.6l-183.9-213.3l-63.2,59.7l-122.6-183.3h733L865.6,1357.5L865.6,1357.5L865.6,1357.5z M928.7,1819.8H71.3c-37,0-61.3-23.3-61.3-61.3v-613c0-31.3,30-61.3,61.3-61.3h857.4c31.3,0,61.3,32.9,61.3,61.3v613C990,1789.8,958.1,1819.8,928.7,1819.8L928.7,1819.8z M898.8,1176.2H101v551.7h797.8L898.8,1176.2L898.8,1176.2L898.8,1176.2z M284.9,1483.9c49.7,0,92,40.3,92,90.1c0,49.7-42.2,92-92,92c-49.7,0-90.1-42.3-90.1-92C194.8,1524.3,235.2,1483.9,284.9,1483.9L284.9,1483.9z"/></g></g>
</svg>