<?xml version="1.0" encoding="utf-8"?>
<!-- Svg Vector Icons : http://www.onlinewebfonts.com/icon -->
<!DOCTYPE svg PUBLIC "-//W3C//DTD SVG 1.1//EN" "http://www.w3.org/Graphics/SVG/1.1/DTD/svg11.dtd">
<svg version="1.1" xmlns="http://www.w3.org/2000/svg" xmlns:xlink="http://www.w3.org/1999/xlink" x="0px" y="0px" viewBox="0 0 1000 1000" enable-background="new 0 0 1000 1000" xml:space="preserve">
<metadata> Svg Vector Icons : http://www.onlinewebfonts.com/icon </metadata>
<g><path d="M833.4,990H160.8c-41.6,0-75.4-33.8-75.4-75.4V386.9c0-41.6,33.8-75.4,75.4-75.4h678.1c20.4,0,39.3,7.9,53.6,22.4c14.2,14.3,22,33.5,21.8,53.7l0.4,527.7C914.2,956.5,874.5,990,833.4,990z M833.4,914.6v37.7V914.6L833.4,914.6z M838.9,386.9H160.8v527.7h672.5L838.9,386.9z"/><path d="M688.5,160.8l-1.1-73.3c0.6-20.5-7-39.9-21.3-54.7C651.7,18.1,632.6,10,612,10H386.9c-41.6,0-75.4,33.8-75.4,75.4v75.4H10v75.4h980v-75.4H688.5z M386.9,85.4h226.2v75.4H386.9V85.4z"/><path d="M311.5,801.5c0,20.8-16.9,37.7-37.7,37.7l0,0c-20.8,0-37.7-16.9-37.7-37.7V500c0-20.8,16.9-37.7,37.7-37.7l0,0c20.8,0,37.7,16.9,37.7,37.7V801.5z"/><path d="M537.7,801.5c0,20.8-16.9,37.7-37.7,37.7l0,0c-20.8,0-37.7-16.9-37.7-37.7V500c0-20.8,16.9-37.7,37.7-37.7l0,0c20.8,0,37.7,16.9,37.7,37.7V801.5z"/><path d="M763.8,801.5c0,20.8-16.9,37.7-37.7,37.7l0,0c-20.8,0-37.7-16.9-37.7-37.7V500c0-20.8,16.9-37.7,37.7-37.7l0,0c20.8,0,37.7,16.9,37.7,37.7V801.5z"/></g>
</svg>